<?xml version="1.0" encoding="UTF-8"?>
<svg width="510px" height="374px" viewBox="0 0 510 374" version="1.1" xmlns="http://www.w3.org/2000/svg" xmlns:xlink="http://www.w3.org/1999/xlink">
    <!-- Generator: Sketch 55.1 (78136) - https://sketchapp.com -->
    <title>AIEEE!_2</title>
    <desc>Created with Sketch.</desc>
    <defs>
        <path d="M124.57108,300.595247 L124.049748,297.603562 C123.657662,295.353562 123.653862,293.053028 124.038512,290.801745 L124.859579,285.996198 C125.270812,283.589333 125.084279,281.118288 124.31639,278.800432 C123.563161,276.526829 123.672682,274.05558 124.624086,271.857523 L124.712552,271.653137 C125.738602,269.282622 126.129326,266.685678 125.846224,264.118194 L125.735856,263.11726 C125.431516,260.357163 125.73944,257.563911 126.637706,254.936388 C127.53208,252.320246 127.740949,249.51852 127.244373,246.798682 L126.950648,245.189899 C126.601141,243.275589 126.532885,241.320518 126.748036,239.386494 L127.026316,236.884999 C127.265499,234.734951 127.154271,232.560338 126.696967,230.445914 L126.381737,228.988396 C125.754532,226.088406 126.040907,223.065336 127.2015,220.334704 L127.225533,220.27816 C128.371085,217.582916 128.663215,214.601364 128.062581,211.735031 L127.910503,211.009287 C127.408158,208.612008 127.629756,206.119507 128.547143,203.84845 L128.749284,203.348036 C129.531935,201.410529 129.672017,199.272967 129.148917,197.249889 C128.62162,195.210578 128.650582,193.067206 129.232787,191.042887 L129.325062,190.722048 C129.970252,188.478734 130.074725,186.114469 129.629921,183.82299 L129.477634,183.03846 C128.937191,180.254282 129.236568,177.37229 130.337728,174.758639 L130.613736,174.103522 C131.831721,171.212585 134.485475,169.179467 137.593785,168.755905 L140.747477,168.326158 C142.337371,168.109507 143.94756,168.084974 145.543316,168.25309 L153.959407,169.13974 C156.295048,169.385804 158.172505,171.173162 158.533043,173.49389 L158.5342,173.501336 C158.936287,176.089499 158.767151,178.7343 158.038659,181.250162 C157.311641,183.760937 157.18838,186.408002 157.678929,188.975473 L158.063752,190.989581 C158.663821,194.130264 158.363185,197.376632 157.196568,200.353708 C156.025499,203.342145 155.636258,206.579953 156.065672,209.760796 L156.542111,213.289977 C156.960783,216.391246 156.645863,219.547488 155.622675,222.504893 L155.524173,222.789602 C154.44137,225.919319 154.228558,229.284289 154.908445,232.525484 L155.244795,234.128948 C155.84702,236.999911 155.655422,239.980717 154.690595,242.750954 C153.725458,245.522079 153.527064,248.502508 154.116391,251.377107 L154.190971,251.740896 C154.829187,254.853965 154.617135,258.081466 153.577097,261.084272 L153.523061,261.240283 C152.449839,264.338898 152.277865,267.678434 153.027121,270.870899 L153.201328,271.613169 C153.951284,274.808613 153.668215,278.159596 152.392852,281.183955 L152.368802,281.240986 C151.108522,284.229578 150.820274,287.538889 151.544868,290.700368 L151.840965,291.99227 C152.37577,294.325677 152.243668,296.762447 151.459742,299.024364 L151.043233,300.226149 C150.523012,301.727178 149.825804,303.160879 148.96635,304.496939 L148.603443,305.061095 C147.562635,306.679079 145.810217,307.701083 143.889479,307.810262 L138.739636,308.102991 C136.832837,308.211378 134.920343,308.046082 133.060417,307.612138 L130.675289,307.055659 C127.528882,306.321563 125.125741,303.77819 124.57108,300.595247 Z" id="path-1"></path>
        <filter x="-3.9%" y="-1.3%" width="119.4%" height="104.1%" filterUnits="objectBoundingBox" id="filter-2">
            <feOffset dx="4" dy="2" in="SourceAlpha" result="shadowOffsetOuter1"></feOffset>
            <feColorMatrix values="0 0 0 0 0.028051404   0 0 0 0 0.014714596   0 0 0 0 0.00709356292  0 0 0 1 0" type="matrix" in="shadowOffsetOuter1"></feColorMatrix>
        </filter>
        <path d="M144.716724,154.78883 L140.638597,155.614306 C137.664217,156.216366 134.6208,154.962005 132.934435,152.438994 L132.472494,151.747872 C130.984614,149.52182 130.451581,146.79207 130.99274,144.169811 L131.70485,140.719182 C131.964671,139.460186 131.979304,138.162902 131.747948,136.898365 L130.773114,131.570142 C130.367558,129.353465 130.722594,127.064787 131.780664,125.075159 L133.678115,121.507131 C134.981619,119.055981 137.245426,117.257024 139.92766,116.54087 L144.431115,115.338451 C145.272583,115.11378 146.139796,115 147.010741,115 L155.082153,115 C157.889953,115 160.372511,116.823318 161.21258,119.502501 L161.587884,120.699435 C162.259294,122.840722 162.190953,125.145608 161.393854,127.243354 L161.001357,128.276301 C160.222626,130.325707 160.138965,132.574235 160.763251,134.675843 L161.67552,137.746921 C162.291433,139.820344 162.218474,142.037573 161.467586,144.06602 L159.632722,149.022723 C158.394072,152.368811 155.203261,154.590058 151.63527,154.590058 L146.700643,154.590058 C146.034366,154.590058 145.369757,154.656646 144.716724,154.78883 Z" id="path-3"></path>
        <filter x="-4.7%" y="-4.8%" width="121.6%" height="112.4%" filterUnits="objectBoundingBox" id="filter-4">
            <feOffset dx="4" dy="2" in="SourceAlpha" result="shadowOffsetOuter1"></feOffset>
            <feColorMatrix values="0 0 0 0 0.028051404   0 0 0 0 0.014714596   0 0 0 0 0.00709356292  0 0 0 1 0" type="matrix" in="shadowOffsetOuter1"></feColorMatrix>
        </filter>
        <path d="M240.537256,349.712754 L240.293126,348.794706 C239.448812,345.619673 239.533543,342.269017 240.537256,339.140718 L241.060134,337.511051 C241.73179,335.417684 242.0537,333.227898 242.012911,331.029797 L241.895455,324.700142 C241.84649,322.061456 242.32025,319.43917 243.289427,316.984429 L243.301055,316.954977 C244.26092,314.523823 244.395573,311.844669 243.684305,309.329525 L242.802722,306.212122 C241.977923,303.295517 242.071642,300.19563 243.071127,297.334179 L243.211056,296.933572 C244.127083,294.311059 244.37428,291.501429 243.930251,288.759255 L243.918117,288.684319 C243.479836,285.977649 243.602788,283.209769 244.279333,280.552621 L244.475554,279.781958 C245.275283,276.641 245.212015,273.342374 244.292431,270.234393 L243.865565,268.791681 C242.852625,265.368178 242.774564,261.735935 243.639486,258.272074 L244.175755,256.124412 C244.86233,253.3748 244.956702,250.510668 244.452616,247.721824 L243.333057,241.527893 C242.902567,239.146216 242.907945,236.706177 243.34893,234.326421 L245.455087,222.960637 C245.82475,220.965768 245.888727,218.926265 245.644823,216.912149 L244.353526,206.248891 C244.001582,203.342617 244.29195,200.394513 245.204125,197.612745 L246.208475,194.549882 C247.050126,191.983185 247.363129,189.272596 247.1286,186.581629 L246.306576,177.149764 C246.060715,174.328765 246.416697,171.487714 247.350969,168.814584 L249.052072,163.947408 C250.27663,160.443714 250.502082,156.668384 249.703201,153.043857 L248.251869,146.459153 C247.595635,143.481816 248.09148,140.36642 249.639617,137.73993 C251.197671,135.096615 251.796564,131.996886 251.33531,128.963423 L250.527453,123.650506 C250.131585,121.04706 250.253754,118.391065 250.886949,115.834954 L252.25819,110.29946 C252.945154,107.526289 253.030003,104.638123 252.507024,101.829406 L251.895459,98.544929 C251.392789,95.8452863 251.451443,93.0710502 252.067767,90.3950658 L252.730386,87.5180756 C253.361331,84.7786044 253.407671,81.936893 252.866383,79.1783061 L252.499241,77.3072263 C251.860727,74.0531467 252.041367,70.6913637 253.024903,67.5244425 L254.005313,64.3675894 C254.807314,61.7852001 255.07732,59.0669962 254.79901,56.3772967 L254.767171,56.0695904 C254.489246,53.3836221 255.755783,50.7718141 258.036928,49.326808 L264.052281,45.5163445 C265.966207,44.303956 268.07222,43.42558 270.280407,42.9187173 L272.143537,42.4910581 C274.921524,41.8534048 277.531132,40.6293496 279.797483,38.900921 L285.816269,34.3107033 C287.784965,32.809281 290.015328,31.6864539 292.393956,30.999313 L301.381915,28.4028595 C302.100195,28.1953619 302.806274,27.9477509 303.496829,27.6611925 L321.537051,20.1750662 C322.186629,19.9055118 322.849972,19.670408 323.524317,19.4707344 L338.233032,15.115484 C342.182417,13.9460709 346.333534,16.1921456 347.515234,20.1378723 L348.812165,24.4683606 C349.369708,26.3300102 349.652944,28.2629813 349.652944,30.2063272 L349.652944,34.9918217 C349.652944,37.76048 349.0781,40.4989819 347.964805,43.0339461 L346.573771,46.2013208 C344.597014,50.7023814 340.965682,54.2713467 336.431055,56.1698383 L327.430883,59.9378988 C327.042462,60.1005172 326.649003,60.2508281 326.251092,60.3886067 L309.059261,66.3413704 C308.362046,66.5827848 307.678724,66.8625962 307.01243,67.1795211 L298.382068,71.2845775 C297.190811,71.8512025 296.058535,72.5342954 295.001785,73.3238755 L291.469064,75.9634454 C288.980636,77.8227425 287.531443,80.7599591 287.570001,83.8660451 L287.605882,86.7564658 C287.622827,88.1215689 287.779501,89.4813496 288.073453,90.8145361 L289.249749,96.1495089 C290.023847,99.6603517 289.67706,103.325579 288.258232,106.628937 L288.136042,106.913424 C286.794672,110.036442 286.435499,113.49373 287.106261,116.825786 L287.358224,118.077429 C287.865684,120.598273 287.620016,123.21272 286.651842,125.594906 C285.676153,127.99558 285.284018,130.593505 285.507658,133.175208 L285.649812,134.816233 C285.911695,137.839422 285.35803,140.877524 284.046507,143.613974 L283.574427,144.598954 C282.579319,146.675214 282.268649,149.01367 282.687134,151.27773 C283.109965,153.565302 282.964718,155.921701 282.264145,158.140027 L282.145715,158.51503 C281.373533,160.960106 281.358404,163.581482 282.102313,166.035307 L282.360108,166.88566 C282.949247,168.82897 285.002204,169.926743 286.945515,169.337603 C287.260819,169.242015 287.561844,169.10448 287.840507,168.928692 L290.966998,166.956416 C292.749568,165.831923 294.698678,164.996258 296.742178,164.480357 L300.290017,163.584672 C302.690527,162.97864 304.957647,161.932165 306.97611,160.498453 L307.791254,159.919457 C310.333893,158.113422 313.271128,156.940817 316.358486,156.499239 L318.166764,156.240606 C321.938032,155.70121 325.557808,157.927459 326.777674,161.536521 L327.733186,164.36347 C328.565244,166.825172 328.483792,169.504074 327.503713,171.910678 L327.046034,173.034518 C326.353723,174.734504 326.179725,176.601288 326.545938,178.399935 L326.561436,178.476056 C326.917365,180.224195 326.742353,182.038835 326.058894,183.68673 C325.367085,185.354757 325.023378,187.146544 325.04886,188.952164 L325.066163,190.178318 C325.100262,192.594634 323.727285,194.810575 321.548457,195.855782 L305.576577,203.517658 C304.876038,203.853714 304.156511,204.148662 303.421655,204.401002 L287.4957,209.869767 C284.472176,210.908006 282.571826,213.902912 282.920169,217.080694 L283.144709,219.129071 C283.390442,221.370779 283.255272,223.637903 282.744918,225.834532 L282.59392,226.484446 C281.987017,229.096634 281.976039,231.811946 282.561801,234.428955 L282.670045,234.912558 C283.320286,237.817641 283.077536,240.85141 281.97362,243.616133 L281.616492,244.510551 C280.588274,247.085692 280.553751,249.951058 281.519627,252.550225 C282.484433,255.146512 282.43412,258.011234 281.37874,260.57204 L280.989832,261.515699 C279.691402,264.666251 279.57418,268.179684 280.659727,271.409775 L280.841766,271.951442 C281.799173,274.800245 281.52865,277.9189 280.095004,280.560296 C278.655384,283.2127 278.326008,286.327652 279.179063,289.222484 L279.20714,289.317763 C280.097614,292.339579 280.161971,295.544823 279.393512,298.599947 L277.822844,304.844378 C277.148202,307.526521 278.775603,310.247734 281.457746,310.922376 C281.946033,311.045195 282.45005,311.093673 282.952794,311.066174 L288.899779,310.74089 C289.46042,310.710225 290.019521,310.655964 290.575596,310.578251 L302.390251,308.927135 C302.628459,308.893845 302.867249,308.864855 303.106503,308.840178 L315.922978,307.518311 C317.804014,307.324304 319.636086,308.196167 320.671894,309.778266 L320.849243,310.049151 C321.850548,311.578551 322.637447,313.238009 323.18796,314.981172 L324.725189,319.84871 C325.38806,321.947651 325.482399,324.184849 324.998583,326.332144 L324.717302,327.580538 C324.413162,328.930385 324.249925,330.308151 324.230213,331.691697 L324.180629,335.171951 C324.130949,338.65889 322.388938,341.903943 319.510172,343.872171 L311.904935,349.071913 C309.802738,350.509196 307.445394,351.531785 304.95958,352.084727 L291.725062,355.0286 C291.379168,355.10554 291.03538,355.19166 290.694061,355.286867 L275.932308,359.404496 C273.069803,360.20296 270.065335,360.35348 267.137359,359.845112 L247.968075,356.516852 C244.375643,355.893117 241.474294,353.23647 240.537256,349.712754 Z" id="path-5"></path>
        <filter x="-1.2%" y="-0.1%" width="106.6%" height="101.1%" filterUnits="objectBoundingBox" id="filter-6">
            <feOffset dx="4" dy="2" in="SourceAlpha" result="shadowOffsetOuter1"></feOffset>
            <feColorMatrix values="0 0 0 0 0.028051404   0 0 0 0 0.014714596   0 0 0 0 0.00709356292  0 0 0 1 0" type="matrix" in="shadowOffsetOuter1"></feColorMatrix>
        </filter>
        <path d="M446.987455,282.955735 L446.702904,282.834346 C445.092443,282.14733 444.230934,280.381838 444.680405,278.689634 C445.196549,276.746413 445.295288,274.71591 444.970123,272.731778 L444.726582,271.245713 C444.356752,268.989039 444.376678,266.685654 444.785495,264.435717 L444.93752,263.599043 C445.444126,260.81092 445.31238,257.944247 444.552176,255.214344 L443.708318,252.184035 C442.84255,249.075048 442.799834,245.7944 443.584362,242.663925 L443.782721,241.87242 C444.44162,239.243238 444.559222,236.507561 444.128384,233.831533 L443.20078,228.069978 C442.926848,226.36852 442.873978,224.638792 443.043485,222.92378 L443.198799,221.352363 C443.381926,219.499548 443.305439,217.630239 442.971552,215.798579 L442.056765,210.780167 C441.367067,206.996575 441.788943,203.094175 443.271318,199.545397 L443.469256,199.071538 C444.827376,195.820225 445.302427,192.267816 444.846325,188.773893 L444.223847,184.005468 C443.895295,181.488631 444.048824,178.932256 444.676235,176.472831 L445.600385,172.85021 C446.107788,170.861211 446.305967,168.805953 446.187959,166.756649 L445.727549,158.761306 C445.652099,157.451071 445.705799,156.13659 445.887872,154.836876 L447.339467,144.474755 C447.594502,142.654201 447.597317,140.807178 447.347831,138.985855 L446.198678,130.596669 C445.9204,128.565149 445.956187,126.502917 446.304784,124.482275 L446.576536,122.907067 C447.100648,119.869054 446.884845,116.749473 445.947407,113.812565 L445.667698,112.936262 C444.552656,109.442938 444.446514,105.705784 445.361486,102.154804 L447.339392,94.4786026 C447.427894,94.1351295 447.507243,93.7893629 447.577355,93.4416696 L449.504236,83.8860772 C450.716399,77.8748449 455.655726,73.3241832 461.745949,72.6076397 L471.116294,71.5051745 C473.946083,71.1722365 476.814348,71.4477849 479.528998,72.313366 L481.437068,72.9217647 C485.081506,74.0838139 487.659591,77.3367009 487.958552,81.1502175 L488.42266,87.0703347 C488.699426,90.6007363 488.033863,94.1413233 486.493994,97.3302322 L485.983031,98.3883833 C484.719824,101.004356 484.254025,103.934119 484.643634,106.81287 L484.716453,107.350912 C485.062858,109.910438 484.910209,112.512831 484.266941,115.014305 L482.733259,120.978325 C482.051133,123.630902 482.001998,126.406669 482.589816,129.081727 C483.179272,131.764239 483.197805,134.540751 482.644209,137.230893 L482.339092,138.71358 C481.861176,141.035967 481.800029,143.424833 482.158507,145.768628 L482.277549,146.546948 C482.706229,149.349739 482.197971,152.21566 480.831623,154.700111 L480.203518,155.842205 C478.557009,158.836079 477.958508,162.294422 478.503153,165.667497 L478.573161,166.101069 C479.069111,169.172568 478.408423,172.318861 476.718879,174.931429 L476.689513,174.976838 C475.007249,177.578149 474.238696,180.665411 474.505044,183.751816 L474.585005,184.678396 C474.803637,187.211886 474.537121,189.763828 473.799737,192.197475 L473.697965,192.533364 C472.894861,195.183913 472.655424,197.973211 472.995052,200.721854 L473.529446,205.046743 C473.738789,206.740973 473.512317,208.460601 472.871466,210.042862 C472.229143,211.628757 471.971573,213.344238 472.119846,215.048837 L472.313735,217.277833 C472.584236,220.387602 471.722304,223.490422 469.886605,226.01511 L469.773649,226.170461 C467.859183,228.803481 466.909609,232.015352 467.084569,235.266101 L467.258458,238.496953 C467.343097,240.069526 467.0395,241.638768 466.374441,243.0663 C465.710602,244.491212 465.429107,246.064385 465.557645,247.631081 L466.358721,257.395086 C466.508815,259.224518 466.118019,261.057726 465.234898,262.666902 C464.340682,264.296294 463.769351,266.08296 463.552252,267.928877 L462.855718,273.851252 C462.401889,277.709997 459.772335,280.965156 456.095252,282.22012 L453.256905,283.188829 C451.209927,283.887449 448.976905,283.804427 446.987455,282.955735 Z" id="path-7"></path>
        <filter x="-2.6%" y="-0.8%" width="114.4%" height="102.4%" filterUnits="objectBoundingBox" id="filter-8">
            <feOffset dx="4" dy="2" in="SourceAlpha" result="shadowOffsetOuter1"></feOffset>
            <feColorMatrix values="0 0 0 0 0.028051404   0 0 0 0 0.014714596   0 0 0 0 0.00709356292  0 0 0 1 0" type="matrix" in="shadowOffsetOuter1"></feColorMatrix>
        </filter>
        <path d="M450.276126,292 C442.823963,292.323125 440.231572,295.956302 435.977078,299.158845 C431.722584,302.361389 431.195578,300.927997 429.183321,307.877474 C427.171064,314.826951 426.837892,315.168357 429,323.254699 C431.162108,331.341041 430.917207,333.692454 437.322469,338.318103 C443.72773,342.943752 445.995081,342.758398 454.184905,341.44233 C462.374729,340.126262 464.620731,338.670665 469.75788,333.105879 C474.895029,327.541094 475.466852,327.807804 475.908459,317.910422 C476.350067,308.01304 478.050157,304.407453 471.340967,297.625473 C464.631776,290.843493 457.728289,291.676875 450.276126,292 Z" id="path-9"></path>
        <filter x="-4.1%" y="-4.0%" width="116.4%" height="111.9%" filterUnits="objectBoundingBox" id="filter-10">
            <feOffset dx="4" dy="2" in="SourceAlpha" result="shadowOffsetOuter1"></feOffset>
            <feColorMatrix values="0 0 0 0 0.028051404   0 0 0 0 0.014714596   0 0 0 0 0.00709356292  0 0 0 1 0" type="matrix" in="shadowOffsetOuter1"></feColorMatrix>
        </filter>
    </defs>
    <g id="AIEEE!_2" stroke="none" stroke-width="1" fill="none" fill-rule="evenodd">
        <g id="Path-2">
            <use fill="black" fill-opacity="1" filter="url(#filter-2)" xlink:href="#path-1"></use>
            <use fill="#FBDA5F" fill-rule="evenodd" xlink:href="#path-1"></use>
        </g>
        <g id="Path-5">
            <use fill="black" fill-opacity="1" filter="url(#filter-4)" xlink:href="#path-3"></use>
            <use fill="#FBDA5F" fill-rule="evenodd" xlink:href="#path-3"></use>
        </g>
        <g id="Path-7">
            <use fill="black" fill-opacity="1" filter="url(#filter-6)" xlink:href="#path-5"></use>
            <use fill="#FBDA5F" fill-rule="evenodd" xlink:href="#path-5"></use>
        </g>
        <g id="Path-9">
            <use fill="black" fill-opacity="1" filter="url(#filter-8)" xlink:href="#path-7"></use>
            <use fill="#FBDA5F" fill-rule="evenodd" xlink:href="#path-7"></use>
        </g>
        <g id="Path-10">
            <use fill="black" fill-opacity="1" filter="url(#filter-10)" xlink:href="#path-9"></use>
            <use fill="#FBDA5F" fill-rule="evenodd" xlink:href="#path-9"></use>
        </g>
    </g>
</svg>