<?xml version="1.0" encoding="UTF-8"?>
<svg width="510px" height="374px" viewBox="0 0 510 374" version="1.1" xmlns="http://www.w3.org/2000/svg" xmlns:xlink="http://www.w3.org/1999/xlink">
    <!-- Generator: Sketch 55.1 (78136) - https://sketchapp.com -->
    <title>AIEEE!</title>
    <desc>Created with Sketch.</desc>
    <defs>
        <path d="M26.6657135,279.349294 L24.4018921,278.424189 C22.3444496,277.58342 21,275.581639 21,273.359037 L21,272.024271 C21,270.055705 21.5927065,268.132743 22.7009461,266.505765 C23.8091857,264.878787 24.4018921,262.955825 24.4018921,260.987259 L24.4018921,256.85083 C24.4018921,255.144048 24.8387443,253.46567 25.6708614,251.975474 L26.534815,250.428263 C27.3669321,248.938066 27.8037842,247.259688 27.8037842,245.552906 L27.8037842,241.275665 C27.8037842,239.289094 28.3954752,237.347538 29.5033979,235.698606 L29.8785776,235.140223 C30.9865004,233.491292 31.5781913,231.549736 31.5781913,229.563164 L31.5781913,228.915098 C31.5781913,226.885191 32.3372372,224.928649 33.7062125,223.42984 C35.0751878,221.931031 35.8342337,219.97449 35.8342337,217.944583 L35.8342337,217.420579 C35.8342337,215.599214 36.5208037,213.844779 37.7570125,212.507184 C38.9932214,211.169589 39.6797914,209.415154 39.6797914,207.593788 L39.6797914,204.518969 C39.6797914,202.820342 40.1124813,201.149709 40.9370506,199.664643 L43.6521075,194.77477 C44.4766767,193.289704 44.9093667,191.619072 44.9093667,189.920444 L44.9093667,186.176254 C44.9093667,184.035462 45.7127124,181.972609 47.1605333,180.395648 C48.6083543,178.818687 49.4117,176.755835 49.4117,174.615043 L49.4117,171.068877 C49.4117,169.419641 49.8196043,167.796006 50.5990795,166.342597 L52.5494611,162.705916 C53.3289363,161.252507 53.7368406,159.628872 53.7368406,157.979636 L53.7368406,156.660633 C53.7368406,155.070583 54.3404331,153.539816 55.4256432,152.377672 C56.5108532,151.215528 57.1144458,149.68476 57.1144458,148.09471 L57.1144458,147.476484 C57.1144458,145.513446 57.9718113,143.648317 59.4617272,142.370166 L59.7425742,142.129236 C61.4302859,140.681403 62.4996021,138.642326 62.7309306,136.430747 L63.0420426,133.456411 C63.2368483,131.594003 63.9506677,129.823709 65.1022298,128.347085 L67.0154376,125.893819 C67.1826876,125.679358 67.3411191,125.458163 67.4903368,125.230786 L69.5322355,122.119354 C70.6677368,120.389085 72.3121115,119.053746 74.23858,118.297496 L77.8747127,116.870104 C78.58525,116.591178 79.2615145,116.231813 79.8902942,115.799033 L83.4447292,113.352561 C84.7245932,112.471648 86.2417172,112 87.7954421,112 C89.2346804,112 90.5273119,112.880738 91.0539224,114.220173 L91.9871626,116.593873 C92.7213455,118.46127 92.8767743,120.506347 92.4332441,122.463251 L91.97742,124.474398 C91.6544444,125.899402 91.6476694,127.377872 91.9575717,128.805776 L92.6927874,132.193352 C93.1050889,134.09307 92.9547493,136.071773 92.2601607,137.887392 L91.8662684,138.917006 C91.0335605,141.09366 90.9872371,143.492801 91.7353006,145.699977 L92.7152909,148.591459 C93.5358361,151.012495 93.3980565,153.655847 92.3302581,155.978456 L91.3764654,158.053087 C90.3567372,160.271137 90.1835901,162.785592 90.8896619,165.122482 L92.2137809,169.504926 C92.8000287,171.445233 92.7828044,173.517885 92.1643908,175.448181 L90.8394905,179.583683 C90.161727,181.699233 90.2076872,183.980236 90.9701189,186.066767 L92.0543208,189.033879 C92.8740461,191.277204 92.8637846,193.739839 92.0253926,195.976255 L91.2065782,198.160447 C90.30007,200.578564 90.3641834,203.253618 91.385495,205.62553 L92.3415396,207.845865 C93.3983411,210.3002 93.4288833,213.075406 92.4263531,215.552404 L91.6846541,217.384954 C90.7195582,219.769461 90.7104861,222.434169 91.6593236,224.825193 L93.389369,229.184821 C94.5048744,231.99584 94.2883203,235.160681 92.8003169,237.793555 L92.48667,238.348522 C91.0258055,240.933376 90.7891174,244.033736 91.8406728,246.810393 L92.4881449,248.520059 C93.4498233,251.059394 93.337524,253.880625 92.177051,256.335488 L92.0796578,256.541513 C90.8708709,259.098579 90.8014611,262.047939 91.888621,264.659037 L93.580978,268.723674 C94.5793542,271.121536 94.4841627,273.835274 93.3202244,276.157287 L93.1654501,276.466055 C92.0832371,278.625029 91.8188919,281.102707 92.4212448,283.441408 L93.4198257,287.318508 C93.7970755,288.783222 93.8371538,290.314429 93.5370439,291.796873 L91.5970718,301.379689 C91.5237922,301.741665 91.4305161,302.099305 91.3176723,302.450963 L89.8902824,306.899172 C88.9486122,309.833721 86.152052,311.768861 83.0739151,311.615905 L77.6604863,311.346904 C72.6202616,311.096448 68.7373867,306.807504 68.9878423,301.76728 C68.989166,301.740642 68.9906063,301.71401 68.9921632,301.687384 L69.4915584,293.146869 C69.5173181,292.706335 69.5138892,292.264578 69.4812943,291.824497 L68.2423361,275.09665 C68.2134047,274.706032 68.2074483,274.314051 68.2244979,273.922735 L68.5522501,266.400232 C68.7363669,262.174422 66.0072471,258.370535 61.9451668,257.191182 L56.8033323,255.698343 C55.6273765,255.356925 54.3987143,255.234392 53.1784921,255.336841 L52.6124546,255.384365 C51.1202659,255.509649 49.8086899,256.422562 49.1729999,257.778372 L47.005136,262.402028 C46.4920139,263.496423 46.1815513,264.674779 46.0888093,265.879933 L45.6086673,272.119224 C45.5087603,273.417484 45.1562682,274.683736 44.5709837,275.84688 L43.5161132,277.943237 C42.3565482,280.247656 39.8536451,281.552791 37.3003639,281.18443 L29.0206149,279.989915 C28.2124369,279.87332 27.4215818,279.658178 26.6657135,279.349294 Z M64.652133,233.169514 C64.7010441,233.178255 64.7501648,233.185779 64.7994496,233.19208 C66.4429264,233.402199 67.9455626,232.240233 68.1556814,230.596756 L68.6555847,226.686685 C68.6717961,226.559885 68.6798864,226.432178 68.6798061,226.304346 L68.6730471,215.546154 C68.6730463,215.544913 68.6730463,215.543671 68.6730471,215.54243 L68.6798453,204.456354 C68.6798995,204.367894 68.6760411,204.279474 68.6682813,204.191354 L68.0522243,197.195448 C68.0227154,196.860348 67.8240518,196.563549 67.5254998,196.408533 C67.0432311,196.158127 66.4492811,196.346089 66.1988753,196.828358 L64.8672508,199.392998 C64.7180089,199.68043 64.6162947,199.990132 64.5660573,200.31008 L63.7527535,205.48978 C63.7340712,205.608763 63.7082406,205.726512 63.6754021,205.842389 L61.6819632,212.876637 C61.6597279,212.955099 61.6407012,213.034434 61.6249305,213.114446 L59.8935259,221.898646 C59.870648,222.014716 59.8409246,222.12933 59.8045112,222.24189 L57.7859311,228.48163 C57.7440438,228.61111 57.7110153,228.74329 57.6870744,228.877254 C57.3955949,230.508268 58.4815019,232.066756 60.1125156,232.358236 L64.652133,233.169514 Z" id="path-1"></path>
        <filter x="-2.7%" y="-1.0%" width="110.9%" height="103.0%" filterUnits="objectBoundingBox" id="filter-2">
            <feOffset dx="4" dy="2" in="SourceAlpha" result="shadowOffsetOuter1"></feOffset>
            <feColorMatrix values="0 0 0 0 0.31372549   0 0 0 0 0.188235294   0 0 0 0 0.109803922  0 0 0 1 0" type="matrix" in="shadowOffsetOuter1"></feColorMatrix>
        </filter>
        <path d="M124.57108,300.595247 L124.049748,297.603562 C123.657662,295.353562 123.653862,293.053028 124.038512,290.801745 L124.859579,285.996198 C125.270812,283.589333 125.084279,281.118288 124.31639,278.800432 C123.563161,276.526829 123.672682,274.05558 124.624086,271.857523 L124.712552,271.653137 C125.738602,269.282622 126.129326,266.685678 125.846224,264.118194 L125.735856,263.11726 C125.431516,260.357163 125.73944,257.563911 126.637706,254.936388 C127.53208,252.320246 127.740949,249.51852 127.244373,246.798682 L126.950648,245.189899 C126.601141,243.275589 126.532885,241.320518 126.748036,239.386494 L127.026316,236.884999 C127.265499,234.734951 127.154271,232.560338 126.696967,230.445914 L126.381737,228.988396 C125.754532,226.088406 126.040907,223.065336 127.2015,220.334704 L127.225533,220.27816 C128.371085,217.582916 128.663215,214.601364 128.062581,211.735031 L127.910503,211.009287 C127.408158,208.612008 127.629756,206.119507 128.547143,203.84845 L128.749284,203.348036 C129.531935,201.410529 129.672017,199.272967 129.148917,197.249889 C128.62162,195.210578 128.650582,193.067206 129.232787,191.042887 L129.325062,190.722048 C129.970252,188.478734 130.074725,186.114469 129.629921,183.82299 L129.477634,183.03846 C128.937191,180.254282 129.236568,177.37229 130.337728,174.758639 L130.613736,174.103522 C131.831721,171.212585 134.485475,169.179467 137.593785,168.755905 L140.747477,168.326158 C142.337371,168.109507 143.94756,168.084974 145.543316,168.25309 L153.959407,169.13974 C156.295048,169.385804 158.172505,171.173162 158.533043,173.49389 L158.5342,173.501336 C158.936287,176.089499 158.767151,178.7343 158.038659,181.250162 C157.311641,183.760937 157.18838,186.408002 157.678929,188.975473 L158.063752,190.989581 C158.663821,194.130264 158.363185,197.376632 157.196568,200.353708 C156.025499,203.342145 155.636258,206.579953 156.065672,209.760796 L156.542111,213.289977 C156.960783,216.391246 156.645863,219.547488 155.622675,222.504893 L155.524173,222.789602 C154.44137,225.919319 154.228558,229.284289 154.908445,232.525484 L155.244795,234.128948 C155.84702,236.999911 155.655422,239.980717 154.690595,242.750954 C153.725458,245.522079 153.527064,248.502508 154.116391,251.377107 L154.190971,251.740896 C154.829187,254.853965 154.617135,258.081466 153.577097,261.084272 L153.523061,261.240283 C152.449839,264.338898 152.277865,267.678434 153.027121,270.870899 L153.201328,271.613169 C153.951284,274.808613 153.668215,278.159596 152.392852,281.183955 L152.368802,281.240986 C151.108522,284.229578 150.820274,287.538889 151.544868,290.700368 L151.840965,291.99227 C152.37577,294.325677 152.243668,296.762447 151.459742,299.024364 L151.043233,300.226149 C150.523012,301.727178 149.825804,303.160879 148.96635,304.496939 L148.603443,305.061095 C147.562635,306.679079 145.810217,307.701083 143.889479,307.810262 L138.739636,308.102991 C136.832837,308.211378 134.920343,308.046082 133.060417,307.612138 L130.675289,307.055659 C127.528882,306.321563 125.125741,303.77819 124.57108,300.595247 Z" id="path-3"></path>
        <filter x="-3.9%" y="-1.3%" width="119.4%" height="104.1%" filterUnits="objectBoundingBox" id="filter-4">
            <feOffset dx="4" dy="2" in="SourceAlpha" result="shadowOffsetOuter1"></feOffset>
            <feColorMatrix values="0 0 0 0 0.31372549   0 0 0 0 0.188235294   0 0 0 0 0.109803922  0 0 0 1 0" type="matrix" in="shadowOffsetOuter1"></feColorMatrix>
        </filter>
        <path d="M144.716724,154.78883 L140.638597,155.614306 C137.664217,156.216366 134.6208,154.962005 132.934435,152.438994 L132.472494,151.747872 C130.984614,149.52182 130.451581,146.79207 130.99274,144.169811 L131.70485,140.719182 C131.964671,139.460186 131.979304,138.162902 131.747948,136.898365 L130.773114,131.570142 C130.367558,129.353465 130.722594,127.064787 131.780664,125.075159 L133.678115,121.507131 C134.981619,119.055981 137.245426,117.257024 139.92766,116.54087 L144.431115,115.338451 C145.272583,115.11378 146.139796,115 147.010741,115 L155.082153,115 C157.889953,115 160.372511,116.823318 161.21258,119.502501 L161.587884,120.699435 C162.259294,122.840722 162.190953,125.145608 161.393854,127.243354 L161.001357,128.276301 C160.222626,130.325707 160.138965,132.574235 160.763251,134.675843 L161.67552,137.746921 C162.291433,139.820344 162.218474,142.037573 161.467586,144.06602 L159.632722,149.022723 C158.394072,152.368811 155.203261,154.590058 151.63527,154.590058 L146.700643,154.590058 C146.034366,154.590058 145.369757,154.656646 144.716724,154.78883 Z" id="path-5"></path>
        <filter x="-4.7%" y="-4.8%" width="121.6%" height="112.4%" filterUnits="objectBoundingBox" id="filter-6">
            <feOffset dx="4" dy="2" in="SourceAlpha" result="shadowOffsetOuter1"></feOffset>
            <feColorMatrix values="0 0 0 0 0.31372549   0 0 0 0 0.188235294   0 0 0 0 0.109803922  0 0 0 1 0" type="matrix" in="shadowOffsetOuter1"></feColorMatrix>
        </filter>
        <path d="M179.616993,128.906158 L179.7391,132.326759 C179.832878,134.953778 179.313833,137.566561 178.223056,139.958261 C177.138,142.337417 176.724548,144.968097 177.027476,147.565395 L177.087956,148.083954 C177.372951,150.527492 177.129648,153.003741 176.374516,155.345082 C175.617357,157.692707 175.309629,160.162046 175.467459,162.623696 L175.695854,166.185956 C175.833947,168.339777 175.622509,170.501752 175.069742,172.588009 L174.165849,175.999491 C173.35289,179.067768 173.2819,182.285478 173.958749,185.386623 L174.022731,185.67977 C174.699066,188.778563 174.628704,191.993778 173.817454,195.060016 L173.252205,197.196457 C172.692044,199.313667 172.617335,201.530057 173.033655,203.680182 C173.449625,205.828503 173.359137,208.04421 172.76937,210.151457 L172.199958,212.185975 C171.457624,214.838344 171.271136,217.615454 171.65218,220.34326 L171.922449,222.27806 C172.293634,224.935287 172.126372,227.640036 171.430621,230.231284 L171.10144,231.457283 C170.353665,234.242288 170.216975,237.156062 170.700742,239.998841 L170.988885,241.692068 C171.363702,243.894618 171.366814,246.144404 170.998094,248.347982 L170.3068,252.479356 C169.855124,255.178701 169.962276,257.942026 170.621625,260.598289 L171.07883,262.440195 C171.718217,265.016037 171.838534,267.693378 171.432771,270.316188 L170.87006,273.953501 C170.604092,275.67269 170.563565,277.419233 170.749504,279.148909 L171.039797,281.849318 C171.287152,284.1503 171.133276,286.476754 170.585019,288.725112 L169.794014,291.96896 C169.268337,294.124724 169.105068,296.35294 169.310899,298.562303 L170.180544,307.89697 C170.246472,308.604635 170.274632,309.315311 170.264903,310.025973 L170.134157,319.576289 C170.114989,320.976398 170.24291,322.374648 170.515815,323.748036 L171.657657,329.494337 C171.692298,329.668668 171.729261,329.84253 171.768537,330.015875 L172.291095,332.322197 C172.647813,333.896579 173.858874,335.136995 175.424262,335.53131 L178.805663,336.383072 C181.940127,337.172632 185.219261,337.190704 188.362237,336.435741 L200.816037,333.444257 C200.82394,333.442359 200.831845,333.440465 200.839751,333.438576 L214.232083,330.238917 C215.576408,329.917734 216.883817,329.458063 218.13335,328.867272 L225.978881,325.157829 C230.173159,323.174735 233.191766,319.335957 234.129771,314.792305 L234.78765,311.605566 C235.336453,308.947191 235.33837,306.204923 234.793286,303.545783 L233.752922,298.470469 C233.490105,297.188344 233.102072,295.935112 232.594403,294.728799 L231.763273,292.753883 C230.879982,290.655024 228.47155,289.658573 226.363555,290.519833 L219.717437,293.235229 C218.556541,293.709534 217.353608,294.073603 216.12453,294.322624 L207.888411,295.991328 C207.380258,296.094284 206.876301,296.216961 206.377682,296.35908 L204.616447,296.861079 C203.277443,297.242731 201.873974,296.509501 201.422463,295.192411 L201.325854,294.910595 C200.870841,293.583289 200.943885,292.131807 201.529853,290.856887 C202.120822,289.571084 202.25764,288.122708 201.917898,286.748987 L201.322174,284.340227 C200.778133,282.140439 200.992512,279.821416 201.930599,277.758641 C202.862988,275.708398 203.002297,273.385314 202.321604,271.238338 L201.910906,269.942953 C201.092779,267.362495 201.126314,264.587323 202.006557,262.027388 C202.890522,259.45663 202.996459,256.682223 202.311102,254.051543 L201.830696,252.207549 C201.269696,250.0542 201.582144,247.766413 202.700006,245.842349 C203.825092,243.905849 205.614042,242.442862 207.735322,241.724514 L222.654609,236.672257 C224.707252,235.977151 226.633276,234.953052 228.357354,233.640013 L228.720352,233.363558 C230.647852,231.895594 232.058703,229.852805 232.749027,227.530386 L234.25688,222.457601 C234.892753,220.318371 235.166094,218.087799 235.065575,215.858329 L234.822693,210.471274 C234.717758,208.14385 234.11293,205.866304 233.049327,203.793465 C232.08022,201.904786 230.03336,200.823864 227.927119,201.088488 L223.249336,201.676196 C220.859738,201.976421 218.544012,202.705779 216.413671,203.82915 L210.076611,207.170804 C208.684918,207.90467 207.04755,208.014894 205.570056,207.474174 C204.197389,206.971819 203.325904,205.618299 203.436687,204.160801 L203.81925,199.127677 C203.874974,198.394565 203.890229,197.658937 203.864948,196.924145 L203.646541,190.576301 C203.548212,187.718431 204.314942,184.897446 205.846387,182.482541 C207.350161,180.111269 207.838359,177.235318 207.201329,174.500641 L206.519841,171.575113 C206.03405,169.489685 206.4128,167.296427 207.569858,165.4947 C208.732911,163.683636 209.165312,161.498673 208.779724,159.381135 L207.858954,154.324538 C207.514801,152.43455 207.845407,150.483724 208.79305,148.812657 C209.750685,147.123971 211.173606,145.746192 212.892277,144.843477 L222.479193,139.808045 C223.514941,139.264028 224.596427,138.811942 225.711208,138.456986 L234.189672,135.757371 C236.506979,135.019521 238.668961,133.8621 240.567902,132.342774 C242.391005,130.884126 243.484769,128.700942 243.561539,126.36739 L243.833232,118.108888 C243.870857,116.965202 243.810259,115.820396 243.652105,114.687073 L242.698096,107.850716 C242.352251,105.372413 240.490097,103.376761 238.04163,102.860426 C235.373672,102.297804 232.602045,102.484655 230.033744,103.400283 L214.436354,108.960925 C213.930093,109.141413 213.431313,109.342234 212.941229,109.562901 L198.2023,116.199309 C197.766629,116.395476 197.338127,116.607193 196.91762,116.83405 L187.678469,121.818445 C186.918441,122.22847 186.132654,122.588838 185.326043,122.897288 L183.009747,123.783044 C180.899907,124.589852 179.536409,126.648755 179.616993,128.906158 Z" id="path-7"></path>
        <filter x="-2.4%" y="-0.6%" width="110.3%" height="102.1%" filterUnits="objectBoundingBox" id="filter-8">
            <feOffset dx="4" dy="2" in="SourceAlpha" result="shadowOffsetOuter1"></feOffset>
            <feColorMatrix values="0 0 0 0 0.31372549   0 0 0 0 0.188235294   0 0 0 0 0.109803922  0 0 0 1 0" type="matrix" in="shadowOffsetOuter1"></feColorMatrix>
        </filter>
        <path d="M240.537256,349.712754 L240.293126,348.794706 C239.448812,345.619673 239.533543,342.269017 240.537256,339.140718 L241.060134,337.511051 C241.73179,335.417684 242.0537,333.227898 242.012911,331.029797 L241.895455,324.700142 C241.84649,322.061456 242.32025,319.43917 243.289427,316.984429 L243.301055,316.954977 C244.26092,314.523823 244.395573,311.844669 243.684305,309.329525 L242.802722,306.212122 C241.977923,303.295517 242.071642,300.19563 243.071127,297.334179 L243.211056,296.933572 C244.127083,294.311059 244.37428,291.501429 243.930251,288.759255 L243.918117,288.684319 C243.479836,285.977649 243.602788,283.209769 244.279333,280.552621 L244.475554,279.781958 C245.275283,276.641 245.212015,273.342374 244.292431,270.234393 L243.865565,268.791681 C242.852625,265.368178 242.774564,261.735935 243.639486,258.272074 L244.175755,256.124412 C244.86233,253.3748 244.956702,250.510668 244.452616,247.721824 L243.333057,241.527893 C242.902567,239.146216 242.907945,236.706177 243.34893,234.326421 L245.455087,222.960637 C245.82475,220.965768 245.888727,218.926265 245.644823,216.912149 L244.353526,206.248891 C244.001582,203.342617 244.29195,200.394513 245.204125,197.612745 L246.208475,194.549882 C247.050126,191.983185 247.363129,189.272596 247.1286,186.581629 L246.306576,177.149764 C246.060715,174.328765 246.416697,171.487714 247.350969,168.814584 L249.052072,163.947408 C250.27663,160.443714 250.502082,156.668384 249.703201,153.043857 L248.251869,146.459153 C247.595635,143.481816 248.09148,140.36642 249.639617,137.73993 C251.197671,135.096615 251.796564,131.996886 251.33531,128.963423 L250.527453,123.650506 C250.131585,121.04706 250.253754,118.391065 250.886949,115.834954 L252.25819,110.29946 C252.945154,107.526289 253.030003,104.638123 252.507024,101.829406 L251.895459,98.544929 C251.392789,95.8452863 251.451443,93.0710502 252.067767,90.3950658 L252.730386,87.5180756 C253.361331,84.7786044 253.407671,81.936893 252.866383,79.1783061 L252.499241,77.3072263 C251.860727,74.0531467 252.041367,70.6913637 253.024903,67.5244425 L254.005313,64.3675894 C254.807314,61.7852001 255.07732,59.0669962 254.79901,56.3772967 L254.767171,56.0695904 C254.489246,53.3836221 255.755783,50.7718141 258.036928,49.326808 L264.052281,45.5163445 C265.966207,44.303956 268.07222,43.42558 270.280407,42.9187173 L272.143537,42.4910581 C274.921524,41.8534048 277.531132,40.6293496 279.797483,38.900921 L285.816269,34.3107033 C287.784965,32.809281 290.015328,31.6864539 292.393956,30.999313 L301.381915,28.4028595 C302.100195,28.1953619 302.806274,27.9477509 303.496829,27.6611925 L321.537051,20.1750662 C322.186629,19.9055118 322.849972,19.670408 323.524317,19.4707344 L338.233032,15.115484 C342.182417,13.9460709 346.333534,16.1921456 347.515234,20.1378723 L348.812165,24.4683606 C349.369708,26.3300102 349.652944,28.2629813 349.652944,30.2063272 L349.652944,34.9918217 C349.652944,37.76048 349.0781,40.4989819 347.964805,43.0339461 L346.573771,46.2013208 C344.597014,50.7023814 340.965682,54.2713467 336.431055,56.1698383 L327.430883,59.9378988 C327.042462,60.1005172 326.649003,60.2508281 326.251092,60.3886067 L309.059261,66.3413704 C308.362046,66.5827848 307.678724,66.8625962 307.01243,67.1795211 L298.382068,71.2845775 C297.190811,71.8512025 296.058535,72.5342954 295.001785,73.3238755 L291.469064,75.9634454 C288.980636,77.8227425 287.531443,80.7599591 287.570001,83.8660451 L287.605882,86.7564658 C287.622827,88.1215689 287.779501,89.4813496 288.073453,90.8145361 L289.249749,96.1495089 C290.023847,99.6603517 289.67706,103.325579 288.258232,106.628937 L288.136042,106.913424 C286.794672,110.036442 286.435499,113.49373 287.106261,116.825786 L287.358224,118.077429 C287.865684,120.598273 287.620016,123.21272 286.651842,125.594906 C285.676153,127.99558 285.284018,130.593505 285.507658,133.175208 L285.649812,134.816233 C285.911695,137.839422 285.35803,140.877524 284.046507,143.613974 L283.574427,144.598954 C282.579319,146.675214 282.268649,149.01367 282.687134,151.27773 C283.109965,153.565302 282.964718,155.921701 282.264145,158.140027 L282.145715,158.51503 C281.373533,160.960106 281.358404,163.581482 282.102313,166.035307 L282.360108,166.88566 C282.949247,168.82897 285.002204,169.926743 286.945515,169.337603 C287.260819,169.242015 287.561844,169.10448 287.840507,168.928692 L290.966998,166.956416 C292.749568,165.831923 294.698678,164.996258 296.742178,164.480357 L300.290017,163.584672 C302.690527,162.97864 304.957647,161.932165 306.97611,160.498453 L307.791254,159.919457 C310.333893,158.113422 313.271128,156.940817 316.358486,156.499239 L318.166764,156.240606 C321.938032,155.70121 325.557808,157.927459 326.777674,161.536521 L327.733186,164.36347 C328.565244,166.825172 328.483792,169.504074 327.503713,171.910678 L327.046034,173.034518 C326.353723,174.734504 326.179725,176.601288 326.545938,178.399935 L326.561436,178.476056 C326.917365,180.224195 326.742353,182.038835 326.058894,183.68673 C325.367085,185.354757 325.023378,187.146544 325.04886,188.952164 L325.066163,190.178318 C325.100262,192.594634 323.727285,194.810575 321.548457,195.855782 L305.576577,203.517658 C304.876038,203.853714 304.156511,204.148662 303.421655,204.401002 L287.4957,209.869767 C284.472176,210.908006 282.571826,213.902912 282.920169,217.080694 L283.144709,219.129071 C283.390442,221.370779 283.255272,223.637903 282.744918,225.834532 L282.59392,226.484446 C281.987017,229.096634 281.976039,231.811946 282.561801,234.428955 L282.670045,234.912558 C283.320286,237.817641 283.077536,240.85141 281.97362,243.616133 L281.616492,244.510551 C280.588274,247.085692 280.553751,249.951058 281.519627,252.550225 C282.484433,255.146512 282.43412,258.011234 281.37874,260.57204 L280.989832,261.515699 C279.691402,264.666251 279.57418,268.179684 280.659727,271.409775 L280.841766,271.951442 C281.799173,274.800245 281.52865,277.9189 280.095004,280.560296 C278.655384,283.2127 278.326008,286.327652 279.179063,289.222484 L279.20714,289.317763 C280.097614,292.339579 280.161971,295.544823 279.393512,298.599947 L277.822844,304.844378 C277.148202,307.526521 278.775603,310.247734 281.457746,310.922376 C281.946033,311.045195 282.45005,311.093673 282.952794,311.066174 L288.899779,310.74089 C289.46042,310.710225 290.019521,310.655964 290.575596,310.578251 L302.390251,308.927135 C302.628459,308.893845 302.867249,308.864855 303.106503,308.840178 L315.922978,307.518311 C317.804014,307.324304 319.636086,308.196167 320.671894,309.778266 L320.849243,310.049151 C321.850548,311.578551 322.637447,313.238009 323.18796,314.981172 L324.725189,319.84871 C325.38806,321.947651 325.482399,324.184849 324.998583,326.332144 L324.717302,327.580538 C324.413162,328.930385 324.249925,330.308151 324.230213,331.691697 L324.180629,335.171951 C324.130949,338.65889 322.388938,341.903943 319.510172,343.872171 L311.904935,349.071913 C309.802738,350.509196 307.445394,351.531785 304.95958,352.084727 L291.725062,355.0286 C291.379168,355.10554 291.03538,355.19166 290.694061,355.286867 L275.932308,359.404496 C273.069803,360.20296 270.065335,360.35348 267.137359,359.845112 L247.968075,356.516852 C244.375643,355.893117 241.474294,353.23647 240.537256,349.712754 Z" id="path-9"></path>
        <filter x="-1.2%" y="-0.1%" width="106.6%" height="101.1%" filterUnits="objectBoundingBox" id="filter-10">
            <feOffset dx="4" dy="2" in="SourceAlpha" result="shadowOffsetOuter1"></feOffset>
            <feColorMatrix values="0 0 0 0 0.31372549   0 0 0 0 0.188235294   0 0 0 0 0.109803922  0 0 0 1 0" type="matrix" in="shadowOffsetOuter1"></feColorMatrix>
        </filter>
        <path d="M334.18892,335.893113 C331.030265,334.46699 329,331.322722 329,327.857044 L329,319.390574 C329,317.368482 329.306654,315.358083 329.909503,313.427946 L332.014357,306.688853 C333.034999,303.42107 332.916262,299.903621 331.677576,296.712105 C330.426457,293.488556 330.090341,289.981996 330.706329,286.579477 L331.245986,283.598587 C331.717468,280.994274 331.584753,278.316481 330.858068,275.77155 C330.1376,273.248392 330.174755,270.569104 330.964912,268.066894 L332.545213,263.062512 C333.574129,259.804219 333.751113,256.336649 333.059285,252.990529 L332.360044,249.608556 C331.610627,245.983896 331.881753,242.222372 333.143245,238.742656 L333.446483,237.906203 C334.669548,234.532483 334.856407,230.870214 333.983072,227.389531 C333.106532,223.896072 333.203474,220.22927 334.26338,216.787006 L335.483005,212.826022 C336.290529,210.20342 336.549721,207.442698 336.244454,204.715622 L336.011196,202.631831 C335.671311,199.595494 336.065052,196.521929 337.159344,193.669318 L337.250437,193.431855 C338.287615,190.72813 338.725287,187.831419 338.533197,184.94196 L338.26353,180.885563 C338.123818,178.783973 338.316952,176.673505 338.835792,174.632181 L340.722182,167.210368 C341.398181,164.550722 341.519609,161.780415 341.078913,159.071822 L340.319863,154.40657 C339.935261,152.042735 339.978346,149.629039 340.447069,147.280437 L341.16592,143.678531 C341.66876,141.158977 341.681431,138.566138 341.203239,136.04179 L340.729252,133.539633 C340.115417,130.299227 340.312448,126.957311 341.302801,123.811484 L342.323889,120.56803 C343.180541,117.846898 343.445145,114.973988 343.099935,112.142161 L342.614996,108.164094 C342.262262,105.270543 342.5463,102.33486 343.447221,99.5626045 L344.477413,96.3925682 C345.507658,93.2223653 345.729185,89.8449316 345.121853,86.5673195 L344.854947,85.1268971 C344.08455,80.969261 344.797455,76.6731112 346.869425,72.987139 L347.727508,71.4606352 C349.336563,68.5981756 350.216062,65.3835627 350.288344,62.1006514 L350.334385,60.009572 C350.429824,55.674941 353.00127,51.7786395 356.949267,49.9865855 L362.739252,47.3584256 C363.975523,46.7972641 365.265721,46.3634436 366.589884,46.0636764 L391.348006,40.4588719 C392.075423,40.2941974 392.793059,40.0889625 393.497552,39.8441289 L405.542458,35.6581403 C407.207016,35.0796536 408.940728,34.7236978 410.698561,34.5995189 L429.946764,33.239765 C431.904447,33.1014681 433.674459,34.4007342 434.12923,36.3098785 L434.636293,38.438541 C434.823703,39.225294 435.058663,39.9999549 435.339878,40.7582561 L435.897968,42.2631545 C436.543063,44.0026595 436.784414,45.866019 436.60379,47.7124748 L436.46376,49.1439611 C436.240248,51.4288463 436.496797,53.7352238 437.216948,55.9151412 L437.243444,55.9953441 C437.908192,58.0075555 437.511013,60.2194117 436.187709,61.8746315 C434.793714,63.6182734 433.837391,65.6702942 433.39869,67.8591409 L433.188544,68.9076378 C432.647416,71.6075313 430.675227,73.7964757 428.046169,74.6151915 L411.890949,79.6460924 C410.657026,80.0303486 409.388763,80.2940995 408.10395,80.4336457 L392.117072,82.1700127 C390.076302,82.3916648 388.08182,82.9261774 386.203708,83.7547687 L385.54447,84.0456131 C383.309305,85.0317301 381.562091,86.8718233 380.692959,89.1550228 L380.352295,90.049941 C379.369438,92.6318946 379.357897,95.4829605 380.319818,98.0727867 L380.34397,98.137811 C381.263672,100.613969 380.913149,103.383496 379.405543,105.552444 C377.882049,107.744249 377.420296,110.503179 378.147084,113.071606 L379.26429,117.01975 C380.32953,120.784245 380.046495,124.80258 378.46408,128.380585 C376.873245,131.97763 376.46943,135.987875 377.311187,139.829871 L377.887866,142.461982 C378.648705,145.934653 378.470166,149.547365 377.370632,152.928096 L376.538318,155.48721 C375.758333,157.885427 375.62467,160.446943 376.150816,162.913315 C376.582464,164.936717 378.572675,166.227088 380.596077,165.79544 C380.629408,165.78833 380.66264,165.780765 380.695765,165.772748 L399.298157,161.270288 C400.752405,160.918307 402.241558,160.730628 403.737663,160.710775 L410.473069,160.621395 C414.478563,160.568242 417.874487,163.554923 418.333319,167.534405 L418.858105,172.08592 C419.046103,173.71644 419.032673,175.363903 418.818119,176.991141 L417.357157,188.071462 C416.576271,193.993904 412.483466,198.951129 406.815936,200.839039 L399.523642,203.268173 C398.212232,203.705016 396.859068,204.004731 395.485848,204.162511 L377.542356,206.224185 C374.731864,206.547105 372.604996,208.917715 372.587706,211.746646 L372.57924,213.131699 C372.564802,215.494084 372.13193,217.835227 371.300695,220.046588 L369.291412,225.391945 C368.54257,227.384114 368.390996,229.551435 368.855256,231.628444 C369.324867,233.729389 369.369505,235.903044 368.986543,238.021497 L367.865868,244.220796 C367.469744,246.412062 367.442343,248.654097 367.784797,250.854389 L368.159731,253.263375 C368.536319,255.682983 368.465363,258.151179 367.950392,260.545157 L367.789508,261.293065 C367.170892,264.168863 367.209633,267.147229 367.902842,270.005964 L368.12159,270.908061 C368.819486,273.786127 368.869518,276.783262 368.268075,279.683019 L367.443822,283.657007 C367.18348,284.912204 367.590043,286.21283 368.518909,287.096291 C369.455523,287.987122 370.766779,288.366956 372.034524,288.114668 L385.827246,285.369834 C386.327812,285.270219 386.824382,285.151479 387.315864,285.013875 L397.591397,282.136962 C399.268431,281.66743 400.999609,281.418951 402.741004,281.397828 L410.597815,281.302525 C410.783388,281.300274 410.96892,281.29544 411.154358,281.288025 L413.498612,281.194283 C415.062841,281.131732 416.489918,282.082138 417.035199,283.549582 L418.661493,287.926209 C420.010698,291.557144 420.276489,295.501743 419.426579,299.280856 L418.819378,301.980772 C418.296547,304.305535 418.19336,306.705022 418.514684,309.066087 L418.685202,310.319039 C419.096421,313.34065 418.002919,316.372246 415.757537,318.435616 L412.968385,320.998679 C410.461351,323.302491 407.407669,324.928128 404.096601,325.721601 L388.109396,329.552817 C387.336933,329.737932 386.554129,329.876863 385.765143,329.968872 L367.553348,332.09267 C366.876446,332.171608 366.204021,332.285092 365.538705,332.432678 L344.936017,337.002935 C341.327803,337.803338 337.557423,337.413982 334.18892,335.893113 Z" id="path-11"></path>
        <filter x="-1.8%" y="-0.6%" width="106.6%" height="101.6%" filterUnits="objectBoundingBox" id="filter-12">
            <feOffset dx="4" dy="2" in="SourceAlpha" result="shadowOffsetOuter1"></feOffset>
            <feColorMatrix values="0 0 0 0 0.31372549   0 0 0 0 0.188235294   0 0 0 0 0.109803922  0 0 0 1 0" type="matrix" in="shadowOffsetOuter1"></feColorMatrix>
        </filter>
        <path d="M446.987455,282.955735 L446.702904,282.834346 C445.092443,282.14733 444.230934,280.381838 444.680405,278.689634 C445.196549,276.746413 445.295288,274.71591 444.970123,272.731778 L444.726582,271.245713 C444.356752,268.989039 444.376678,266.685654 444.785495,264.435717 L444.93752,263.599043 C445.444126,260.81092 445.31238,257.944247 444.552176,255.214344 L443.708318,252.184035 C442.84255,249.075048 442.799834,245.7944 443.584362,242.663925 L443.782721,241.87242 C444.44162,239.243238 444.559222,236.507561 444.128384,233.831533 L443.20078,228.069978 C442.926848,226.36852 442.873978,224.638792 443.043485,222.92378 L443.198799,221.352363 C443.381926,219.499548 443.305439,217.630239 442.971552,215.798579 L442.056765,210.780167 C441.367067,206.996575 441.788943,203.094175 443.271318,199.545397 L443.469256,199.071538 C444.827376,195.820225 445.302427,192.267816 444.846325,188.773893 L444.223847,184.005468 C443.895295,181.488631 444.048824,178.932256 444.676235,176.472831 L445.600385,172.85021 C446.107788,170.861211 446.305967,168.805953 446.187959,166.756649 L445.727549,158.761306 C445.652099,157.451071 445.705799,156.13659 445.887872,154.836876 L447.339467,144.474755 C447.594502,142.654201 447.597317,140.807178 447.347831,138.985855 L446.198678,130.596669 C445.9204,128.565149 445.956187,126.502917 446.304784,124.482275 L446.576536,122.907067 C447.100648,119.869054 446.884845,116.749473 445.947407,113.812565 L445.667698,112.936262 C444.552656,109.442938 444.446514,105.705784 445.361486,102.154804 L447.339392,94.4786026 C447.427894,94.1351295 447.507243,93.7893629 447.577355,93.4416696 L449.504236,83.8860772 C450.716399,77.8748449 455.655726,73.3241832 461.745949,72.6076397 L471.116294,71.5051745 C473.946083,71.1722365 476.814348,71.4477849 479.528998,72.313366 L481.437068,72.9217647 C485.081506,74.0838139 487.659591,77.3367009 487.958552,81.1502175 L488.42266,87.0703347 C488.699426,90.6007363 488.033863,94.1413233 486.493994,97.3302322 L485.983031,98.3883833 C484.719824,101.004356 484.254025,103.934119 484.643634,106.81287 L484.716453,107.350912 C485.062858,109.910438 484.910209,112.512831 484.266941,115.014305 L482.733259,120.978325 C482.051133,123.630902 482.001998,126.406669 482.589816,129.081727 C483.179272,131.764239 483.197805,134.540751 482.644209,137.230893 L482.339092,138.71358 C481.861176,141.035967 481.800029,143.424833 482.158507,145.768628 L482.277549,146.546948 C482.706229,149.349739 482.197971,152.21566 480.831623,154.700111 L480.203518,155.842205 C478.557009,158.836079 477.958508,162.294422 478.503153,165.667497 L478.573161,166.101069 C479.069111,169.172568 478.408423,172.318861 476.718879,174.931429 L476.689513,174.976838 C475.007249,177.578149 474.238696,180.665411 474.505044,183.751816 L474.585005,184.678396 C474.803637,187.211886 474.537121,189.763828 473.799737,192.197475 L473.697965,192.533364 C472.894861,195.183913 472.655424,197.973211 472.995052,200.721854 L473.529446,205.046743 C473.738789,206.740973 473.512317,208.460601 472.871466,210.042862 C472.229143,211.628757 471.971573,213.344238 472.119846,215.048837 L472.313735,217.277833 C472.584236,220.387602 471.722304,223.490422 469.886605,226.01511 L469.773649,226.170461 C467.859183,228.803481 466.909609,232.015352 467.084569,235.266101 L467.258458,238.496953 C467.343097,240.069526 467.0395,241.638768 466.374441,243.0663 C465.710602,244.491212 465.429107,246.064385 465.557645,247.631081 L466.358721,257.395086 C466.508815,259.224518 466.118019,261.057726 465.234898,262.666902 C464.340682,264.296294 463.769351,266.08296 463.552252,267.928877 L462.855718,273.851252 C462.401889,277.709997 459.772335,280.965156 456.095252,282.22012 L453.256905,283.188829 C451.209927,283.887449 448.976905,283.804427 446.987455,282.955735 Z" id="path-13"></path>
        <filter x="-2.6%" y="-0.8%" width="114.4%" height="102.4%" filterUnits="objectBoundingBox" id="filter-14">
            <feOffset dx="4" dy="2" in="SourceAlpha" result="shadowOffsetOuter1"></feOffset>
            <feColorMatrix values="0 0 0 0 0.31372549   0 0 0 0 0.188235294   0 0 0 0 0.109803922  0 0 0 1 0" type="matrix" in="shadowOffsetOuter1"></feColorMatrix>
        </filter>
        <path d="M450.276126,292 C442.823963,292.323125 440.231572,295.956302 435.977078,299.158845 C431.722584,302.361389 431.195578,300.927997 429.183321,307.877474 C427.171064,314.826951 426.837892,315.168357 429,323.254699 C431.162108,331.341041 430.917207,333.692454 437.322469,338.318103 C443.72773,342.943752 445.995081,342.758398 454.184905,341.44233 C462.374729,340.126262 464.620731,338.670665 469.75788,333.105879 C474.895029,327.541094 475.466852,327.807804 475.908459,317.910422 C476.350067,308.01304 478.050157,304.407453 471.340967,297.625473 C464.631776,290.843493 457.728289,291.676875 450.276126,292 Z" id="path-15"></path>
        <filter x="-4.1%" y="-4.0%" width="116.4%" height="111.9%" filterUnits="objectBoundingBox" id="filter-16">
            <feOffset dx="4" dy="2" in="SourceAlpha" result="shadowOffsetOuter1"></feOffset>
            <feColorMatrix values="0 0 0 0 0.31372549   0 0 0 0 0.188235294   0 0 0 0 0.109803922  0 0 0 1 0" type="matrix" in="shadowOffsetOuter1"></feColorMatrix>
        </filter>
    </defs>
    <g id="AIEEE!" stroke="none" stroke-width="1" fill="none" fill-rule="evenodd">
        <g id="Combined-Shape">
            <use fill="black" fill-opacity="1" filter="url(#filter-2)" xlink:href="#path-1"></use>
            <use fill="#FBDA5F" fill-rule="evenodd" xlink:href="#path-1"></use>
        </g>
        <g id="Path-2">
            <use fill="black" fill-opacity="1" filter="url(#filter-4)" xlink:href="#path-3"></use>
            <use fill="#FBDA5F" fill-rule="evenodd" xlink:href="#path-3"></use>
        </g>
        <g id="Path-5">
            <use fill="black" fill-opacity="1" filter="url(#filter-6)" xlink:href="#path-5"></use>
            <use fill="#FBDA5F" fill-rule="evenodd" xlink:href="#path-5"></use>
        </g>
        <g id="Path-6">
            <use fill="black" fill-opacity="1" filter="url(#filter-8)" xlink:href="#path-7"></use>
            <use fill="#FBDA5F" fill-rule="evenodd" xlink:href="#path-7"></use>
        </g>
        <g id="Path-7">
            <use fill="black" fill-opacity="1" filter="url(#filter-10)" xlink:href="#path-9"></use>
            <use fill="#FBDA5F" fill-rule="evenodd" xlink:href="#path-9"></use>
        </g>
        <g id="Path-8">
            <use fill="black" fill-opacity="1" filter="url(#filter-12)" xlink:href="#path-11"></use>
            <use fill="#FBDA5F" fill-rule="evenodd" xlink:href="#path-11"></use>
        </g>
        <g id="Path-9">
            <use fill="black" fill-opacity="1" filter="url(#filter-14)" xlink:href="#path-13"></use>
            <use fill="#FBDA5F" fill-rule="evenodd" xlink:href="#path-13"></use>
        </g>
        <g id="Path-10">
            <use fill="black" fill-opacity="1" filter="url(#filter-16)" xlink:href="#path-15"></use>
            <use fill="#FBDA5F" fill-rule="evenodd" xlink:href="#path-15"></use>
        </g>
    </g>
</svg>